#!OML:ASF H:\ManfredETheater\Project 1\Capture day 1\Session 1\subject.ASF
:FULLY-SPECIFIED
:DEGREES
231
root 0.746568 17.1234 30.3016 -165.82 2.02279 175.003
lowerback 7.29156 -0.898548 -5.73704
upperback -0.985345 -1.66066 1.07194
thorax -4.93361 -0.643998 4.5379
lowerneck -18.0612 -0.319442 -1.1204
upperneck 17.4065 -0.00892149 0.0977635
head 8.39347 -0.01336 0.224102
rclavicle 8.54774e-015 -2.34566e-014
rhumerus -38.1181 -7.72656 -78.7564
rradius 37.5464
rwrist -1.52066
rhand -18.7975 -11.2599
rfingers 7.12502
rthumb 7.50057 -41.1069
lclavicle 8.54774e-015 -2.34566e-014
lhumerus -32.226 6.72767 85.6125
lradius 27.3381
lwrist -17.226
lhand -10.8882 10.0004
lfingers 7.12502
lthumb 15.1282 39.4275
rfemur -47.8401 -6.0961 14.8043
rtibia 36.1339
rfoot -8.76504 -5.96888
rtoes -1.51733
lfemur -8.71715 -3.70963 -27.5715
ltibia 29.2576
lfoot -20.1072 6.14509
ltoes -13.7852
232
root 0.757981 17.127 30.1998 -165.734 1.92314 174.971
lowerback 7.30552 -0.957769 -5.73509
upperback -0.99075 -1.73916 1.10134
thorax -4.93696 -0.682321 4.57671
lowerneck -18.1346 -0.305731 -1.11178
upperneck 17.2963 -0.00194245 0.10952
head 8.36905 -0.010825 0.226934
rclavicle -3.18055e-015 1.19271e-015
rhumerus -38.2266 -7.88568 -78.5861
rradius 37.2521
rwrist -1.36977
rhand -18.7525 -11.2811
rfingers 7.12502
rthumb 7.544 -41.1265
lclavicle -3.18055e-015 1.19271e-015
lhumerus -32.1685 6.70136 85.5788
lradius 27.4222
lwrist -17.1854
lhand -10.8639 9.97792
lfingers 7.12502
lthumb 15.1516 39.4033
rfemur -47.8275 -5.54126 14.5464
rtibia 35.0571
rfoot -8.37996 -5.88543
rtoes -1.90701
lfemur -8.30389 -3.70435 -27.5349
ltibia 28.9316
lfoot -19.8615 5.92411
ltoes -14.4034
233
root 0.770717 17.1285 30.096 -165.662 1.79425 174.941
lowerback 7.32146 -1.02029 -5.72946
upperback -0.984385 -1.82115 1.13578
thorax -4.92845 -0.723045 4.61891
lowerneck -18.2015 -0.296307 -1.10507
upperneck 17.169 -0.000944948 0.121858
head 8.33781 -0.0112691 0.229491
rclavicle -3.97569e-015 -8.34896e-015
rhumerus -38.3338 -8.05898 -78.4053
rradius 36.9695
rwrist -1.23115
rhand -18.7244 -11.3029
rfingers 7.12502
rthumb 7.57112 -41.1474
lclavicle -3.97569e-015 -8.34896e-015
lhumerus -32.1011 6.61396 85.5799
lradius 27.5388
lwrist -17.0996
lhand -10.8477 9.95936
lfingers 7.12502
lthumb 15.1672 39.3835
rfemur -47.7877 -4.99442 14.284
rtibia 34.1631
rfoot -8.14914 -5.83159
rtoes -2.24272
lfemur -7.88746 -3.71413 -27.4811
ltibia 28.6474
lfoot -19.6341 5.68096
ltoes -15.0482
234
root 0.784724 17.1279 29.9901 -165.602 1.64536 174.913
lowerback 7.34015 -1.08204 -5.72246
upperback -0.968386 -1.90158 1.1743
thorax -4.91138 -0.763461 4.66435
lowerneck -18.2711 -0.293158 -1.1
upperneck 17.0325 -0.00838161 0.134634
head 8.30398 -0.0158222 0.231399
rclavicle -3.06128e-014 -1.43125e-014
rhumerus -38.4384 -8.25281 -78.2104
rradius 36.6922
rwrist -1.1011
rhand -18.705 -11.2961
rfingers 7.12502
rthumb 7.58993 -41.1399
lclavicle -3.06128e-014 -1.43125e-014
lhumerus -32.0243 6.47081 85.6125
lradius 27.6863
lwrist -16.9744
lhand -10.8363 9.9369
lfingers 7.12502
lthumb 15.1781 39.3602
rfemur -47.7312 -4.48201 14.0442
rtibia 33.464
rfoot -8.03787 -5.78023
rtoes -2.53373
lfemur -7.4739 -3.73223 -27.4126
ltibia 28.4118
lfoot -19.4252 5.41829
ltoes -15.7144
